<svg width="1119" height="171" viewBox="0 0 1119 171" fill="none" xmlns="http://www.w3.org/2000/svg">
<path fill-rule="evenodd" clip-rule="evenodd" d="M1119 69.4155L1088.23 73.6482C1056.52 77.8809 994.977 86.3462 932.5 69.4155C870.022 52.4847 808.477 10.1578 746 1.69246C683.522 -6.77292 621.977 18.6232 559.5 31.3213C497.022 44.0193 435.477 44.0193 373 35.554C310.522 27.0886 248.977 10.1578 186.5 18.6232C124.022 27.0886 31.705 154.069 -5.72205e-06 171H30.7725C62.4775 171 124.022 171 186.5 171C248.977 171 310.522 171 373 171C435.477 171 497.022 171 559.5 171C621.977 171 683.522 171 746 171C808.477 171 870.022 171 932.5 171C994.977 171 1056.52 171 1088.23 171H1119V69.4155Z" fill="#BFBFBF" fill-opacity="0.25"/>
</svg>
